<svg width="222" height="67" viewBox="0 0 222 67" fill="none" xmlns="http://www.w3.org/2000/svg">
<g id="Group 1">
<path id="Vector" d="M63.8086 0H7.59626C5.58162 0 3.64919 0.741513 2.22489 2.06197C0.800049 3.38197 0 5.17289 0 7.04V59.136C0 61.0031 0.800103 62.794 2.22489 64.114C3.64919 65.4345 5.58162 66.176 7.59626 66.176H63.8086C65.8232 66.176 67.7557 65.4345 69.18 64.114C70.6048 62.794 71.4049 61.0031 71.4049 59.136V7.04C71.4049 5.17289 70.6047 3.38197 69.18 2.06197C67.7557 0.741463 65.8232 0 63.8086 0ZM69.8857 59.136C69.8857 60.6299 69.2456 62.0623 68.1059 63.1186C66.9662 64.175 65.4205 64.7681 63.8086 64.7681H7.59626C5.98436 64.7681 4.43879 64.1749 3.29895 63.1186C2.1591 62.0624 1.51912 60.6299 1.51912 59.136V7.04C1.51912 5.54614 2.15921 4.11375 3.29895 3.05737C4.43868 2.00099 5.98436 1.40787 7.59626 1.40787H63.8086C65.4205 1.40787 66.9661 2.00109 68.1059 3.05737C69.2458 4.11365 69.8857 5.54614 69.8857 7.04V59.136ZM50.5763 45.056H57.7317C58.1514 45.056 58.4916 44.7407 58.4916 44.3523C58.4916 43.9634 58.1514 43.6481 57.7317 43.6481H50.8954V39.4238H57.7317C58.1514 39.4238 58.4916 39.1091 58.4916 38.7201C58.4916 38.3312 58.1514 38.0159 57.7317 38.0159H50.8954V33.7922H57.7317C58.1514 33.7922 58.4916 33.4769 58.4916 33.088C58.4916 32.699 58.1514 32.3838 57.7317 32.3838H50.8954V28.16H57.7317C58.1514 28.16 58.4916 27.8448 58.4916 27.4558C58.4916 27.0669 58.1514 26.7521 57.7317 26.7521H50.8954V22.5279H57.7317C58.1514 22.5279 58.4916 22.2126 58.4916 21.8237C58.4916 21.4352 58.1514 21.12 57.7317 21.12H50.5763C50.189 20.3102 49.4901 19.6624 48.6163 19.3035V12.6721C48.6163 12.2831 48.2762 11.9679 47.857 11.9679C47.4374 11.9679 47.0972 12.2831 47.0972 12.6721V19.0078H42.5392V12.6721C42.5392 12.2831 42.1995 11.9679 41.7798 11.9679C41.3602 11.9679 41.02 12.2831 41.02 12.6721V19.0078H36.4625V12.6721C36.4625 12.2831 36.1223 11.9679 35.7027 11.9679C35.283 11.9679 34.9428 12.2831 34.9428 12.6721V19.0078H30.3853V12.6721C30.3853 12.2831 30.0452 11.9679 29.6255 11.9679C29.2058 11.9679 28.8662 12.2831 28.8662 12.6721V19.0078H24.3082V12.6721C24.3082 12.2831 23.968 11.9679 23.5483 11.9679C23.1292 11.9679 22.789 12.2831 22.789 12.6721V19.304V19.3035C21.9152 19.6625 21.2163 20.3102 20.829 21.12H13.6736C13.254 21.12 12.9138 21.4352 12.9138 21.8237C12.9138 22.2126 13.254 22.5279 13.6736 22.5279H20.51V26.7521H13.6736C13.254 26.7521 12.9138 27.0669 12.9138 27.4558C12.9138 27.8448 13.254 28.16 13.6736 28.16H20.51V32.3843L13.6736 32.3838C13.254 32.3838 12.9138 32.6991 12.9138 33.088C12.9138 33.4769 13.254 33.7922 13.6736 33.7922H20.51V38.0165L13.6736 38.016C13.254 38.016 12.9138 38.3312 12.9138 38.7202C12.9138 39.1091 13.254 39.4239 13.6736 39.4239H20.51V43.6481H13.6736C13.254 43.6481 12.9138 43.9634 12.9138 44.3523C12.9138 44.7408 13.254 45.056 13.6736 45.056H20.8296H20.829C21.2164 45.8658 21.9153 46.5136 22.789 46.8725V53.5039C22.789 53.8928 23.1292 54.2081 23.5483 54.2081C23.968 54.2081 24.3082 53.8928 24.3082 53.5039V47.1682H28.8662V53.5039C28.8662 53.8928 29.2058 54.2081 29.6255 54.2081C30.0452 54.2081 30.3854 53.8928 30.3854 53.5039V47.1682H34.9434V53.5039H34.9429C34.9429 53.8928 35.283 54.2081 35.7027 54.2081C36.1224 54.2081 36.4625 53.8928 36.4625 53.5039V47.1682H41.0206V53.5039H41.02C41.02 53.8928 41.3602 54.2081 41.7799 54.2081C42.1995 54.2081 42.5392 53.8928 42.5392 53.5039V47.1682H47.0972V53.5039C47.0972 53.8928 47.4374 54.2081 47.8571 54.2081C48.2762 54.2081 48.6164 53.8928 48.6164 53.5039V46.8725C49.4901 46.5135 50.189 45.8657 50.5763 45.056ZM47.0972 45.7602H24.3084C23.7039 45.7602 23.1242 45.5378 22.6971 45.1414C22.2695 44.7457 22.0294 44.2084 22.0294 43.6481V22.5281C22.0294 21.9678 22.2695 21.4305 22.6971 21.0347C23.1242 20.6384 23.7038 20.416 24.3084 20.416H47.0972C47.7018 20.416 48.2815 20.6384 48.7086 21.0347C49.1362 21.4305 49.3762 21.9678 49.3762 22.5281V43.6481C49.3762 44.2084 49.1362 44.7456 48.7086 45.1414C48.2815 45.5377 47.7018 45.7602 47.0972 45.7602ZM6.83704 9.1522C7.64298 9.1522 8.41611 8.8551 8.9857 8.3272C9.55531 7.7993 9.87588 7.08283 9.87588 6.33589C9.87588 5.58897 9.55531 4.87295 8.9857 4.34457C8.41609 3.81667 7.643 3.52006 6.83704 3.52006C6.03111 3.52006 5.25851 3.81667 4.68838 4.34457C4.11877 4.87296 3.79873 5.58894 3.79873 6.33589C3.79873 7.08281 4.11877 7.79933 4.68838 8.3272C5.25852 8.8551 6.03108 9.1522 6.83704 9.1522ZM6.83704 4.92795C7.45169 4.92795 8.00541 5.27121 8.24072 5.79715C8.47599 6.32309 8.34617 6.92907 7.91167 7.33174C7.47717 7.73442 6.82331 7.85474 6.25582 7.6367C5.68832 7.41866 5.31794 6.9055 5.31794 6.33581C5.31794 5.55844 5.99828 4.92795 6.83704 4.92795ZM42.5395 24.6399H28.8662C28.2616 24.6399 27.6819 24.8624 27.2543 25.2582C26.8272 25.6545 26.5872 26.1917 26.5872 26.7521V39.4241C26.5872 39.9844 26.8272 40.5216 27.2543 40.9179C27.6819 41.3137 28.2616 41.5362 28.8662 41.5362H42.5395C43.1441 41.5362 43.7237 41.3138 44.1514 40.9179C44.5784 40.5217 44.8185 39.9844 44.8185 39.4241V26.7521C44.8185 26.1918 44.5785 25.6545 44.1514 25.2582C43.7238 24.8624 43.1441 24.6399 42.5395 24.6399ZM43.2993 39.424V39.4235C43.2993 39.6106 43.2193 39.7893 43.0768 39.9214C42.9342 40.0535 42.7413 40.1276 42.5395 40.1276H28.8662C28.4465 40.1276 28.1064 39.8124 28.1064 39.4235V26.7514C28.1064 26.3625 28.4465 26.0472 28.8662 26.0472H42.5395C42.7414 26.0472 42.9342 26.1214 43.0768 26.2535C43.2193 26.3856 43.2993 26.5643 43.2993 26.7514V39.424ZM15.1931 57.728C14.5213 57.7299 13.869 57.9381 13.338 58.3207C12.8076 58.7027 12.4288 59.237 12.2608 59.84H9.87584C9.27126 59.84 8.69157 59.6176 8.26394 59.2213C7.83687 58.8255 7.59683 58.2883 7.59683 57.7279V55.5171C8.55962 55.2868 9.34017 54.6342 9.68607 53.77C10.0316 52.9057 9.89908 51.9393 9.33158 51.1825C8.76356 50.4258 7.83146 49.975 6.83689 49.975C5.84232 49.975 4.91083 50.4258 4.34274 51.1825C3.77472 51.9392 3.64224 52.9057 3.98825 53.77C4.33373 54.6342 5.11424 55.2868 6.0775 55.5171V57.7279C6.0775 58.6615 6.47755 59.5567 7.1897 60.2172C7.90185 60.8772 8.86834 61.248 9.87565 61.248H12.2612H12.2606C12.4514 61.932 12.9124 62.5242 13.5519 62.9083C14.192 63.2918 14.964 63.4386 15.7154 63.3198C16.4667 63.2005 17.1424 62.8238 17.608 62.265C18.0738 61.7056 18.2958 61.0049 18.2296 60.3012C18.1639 59.5975 17.8152 58.942 17.2525 58.4655C16.6903 57.9887 15.9548 57.7255 15.1928 57.7279L15.1931 57.728ZM5.31787 52.8001C5.31787 52.2304 5.68825 51.7173 6.25575 51.4992C6.82324 51.2811 7.47711 51.4015 7.9116 51.8041C8.34609 52.2068 8.47592 52.8128 8.24065 53.3387C8.00539 53.8647 7.45167 54.2079 6.83697 54.2079C5.99818 54.2079 5.31787 53.5774 5.31787 52.8001ZM15.1931 61.9522C14.5785 61.9522 14.0248 61.6089 13.7895 61.083C13.5542 60.5566 13.684 59.9511 14.1185 59.5484C14.553 59.1457 15.2069 59.0254 15.7744 59.243C16.3419 59.461 16.7122 59.9747 16.7122 60.5438C16.7122 60.9176 16.5522 61.2755 16.2672 61.5397C15.9826 61.8039 15.5959 61.9522 15.1931 61.9522ZM65.3285 49.2802C64.3429 49.291 63.4241 49.7448 62.864 50.4966C62.3045 51.2489 62.1731 52.2061 62.5117 53.0639C62.8508 53.9218 63.6175 54.574 64.5691 54.8136V57.0239C64.5691 57.5842 64.3291 58.1215 63.9015 58.5178C63.4744 58.9136 62.8947 59.1361 62.2901 59.1361H59.9047C59.6561 58.2438 58.9519 57.5204 58.0194 57.1998C57.0868 56.8796 56.0441 57.0024 55.2275 57.5283C54.411 58.0548 53.9246 58.9186 53.9246 59.8403C53.9246 60.7621 54.411 61.6254 55.2275 62.1519C56.0441 62.6783 57.0868 62.8011 58.0194 62.4804C58.952 62.1602 59.6561 61.4369 59.9047 60.5441H62.2901C63.2974 60.5441 64.2634 60.1734 64.9761 59.5134C65.6883 58.8534 66.0883 57.9577 66.0883 57.0241V54.8138C67.04 54.5742 67.8067 53.922 68.1458 53.0641C68.4844 52.2062 68.353 51.249 67.7934 50.4968C67.2334 49.7449 66.3146 49.2912 65.3284 49.2804L65.3285 49.2802ZM56.9728 61.2481C56.3582 61.2481 55.8045 60.9048 55.5692 60.3789C55.3339 59.8529 55.4637 59.247 55.8982 58.8443C56.3327 58.4416 56.9866 58.3213 57.5541 58.5393C58.1216 58.7574 58.492 59.2705 58.492 59.8402C58.492 60.2134 58.3319 60.5719 58.0469 60.8356C57.7623 61.0998 57.3756 61.2481 56.9728 61.2481ZM65.3285 53.5038C64.7143 53.5038 64.1601 53.1611 63.9248 52.6346C63.69 52.1087 63.8199 51.5032 64.2544 51.1005C64.6889 50.6979 65.3422 50.577 65.9102 50.7951C66.4777 51.0131 66.8481 51.5268 66.8481 52.096C66.8481 52.4697 66.6881 52.8277 66.403 53.0919C66.1179 53.3556 65.7317 53.5038 65.3285 53.5038ZM56.2131 8.44782C56.885 8.44586 57.5372 8.23764 58.0682 7.85511C58.5986 7.47305 58.9775 6.93876 59.1454 6.33572H61.5304C62.135 6.33572 62.7147 6.55817 63.1423 6.95448C63.5694 7.35028 63.8094 7.88752 63.8094 8.44784V10.6586C62.8466 10.889 62.0661 11.5416 61.7202 12.4058C61.3747 13.2701 61.5072 14.2365 62.0746 14.9933C62.6427 15.75 63.5748 16.2008 64.5693 16.2008C65.5639 16.2008 66.4954 15.75 67.0635 14.9933C67.6315 14.2365 67.764 13.2701 67.418 12.4058C67.0725 11.5415 66.292 10.889 65.3287 10.6586V8.44784C65.3287 7.51431 64.9287 6.61907 64.2165 5.95857C63.5044 5.29857 62.5379 4.92781 61.5306 4.92781H59.1456C58.9549 4.24375 58.4939 3.65156 57.8543 3.2675C57.2142 2.88397 56.4422 2.73714 55.6909 2.85599C54.9395 2.97532 54.2639 3.35197 53.7982 3.91081C53.3324 4.47014 53.1104 5.17084 53.1767 5.87459C53.2424 6.5783 53.591 7.23381 54.1537 7.71027C54.7159 8.1871 55.4514 8.45031 56.2134 8.44786L56.2131 8.44782ZM66.0884 13.3757C66.0884 13.9453 65.718 14.4585 65.1505 14.6766C64.583 14.8946 63.9291 14.7743 63.4946 14.3716C63.0601 13.969 62.9303 13.363 63.1656 12.837C63.4008 12.3111 63.9546 11.9678 64.5693 11.9678C64.972 11.9678 65.3588 12.1161 65.6433 12.3803C65.9284 12.644 66.0884 13.0025 66.0884 13.3757ZM56.2131 4.22357C56.8277 4.22357 57.3815 4.56683 57.6168 5.09277C57.852 5.6192 57.7222 6.22469 57.2877 6.62737C56.8532 7.03004 56.1994 7.15036 55.6319 6.93282C55.0644 6.71478 54.694 6.20112 54.694 5.63192C54.694 4.85407 55.3743 4.22357 56.2131 4.22357ZM6.98254 36.023V37.6985C6.98254 38.0875 6.64236 38.4027 6.22269 38.4027C5.80303 38.4027 5.46285 38.0875 5.46285 37.6985V36.023C5.46285 35.6341 5.80303 35.3193 6.22269 35.3193C6.64236 35.3193 6.98254 35.6341 6.98254 36.023ZM6.98254 33.4744C6.98254 33.8633 6.64236 34.1786 6.22269 34.1786C5.80303 34.1786 5.46285 33.8633 5.46285 33.4744V26.1673C5.46285 25.7783 5.80303 25.4631 6.22269 25.4631C6.64236 25.4631 6.98254 25.7783 6.98254 26.1673V33.4744Z" fill="#0D6EFD"/>
<path id="Enterprises" d="M88.704 45.448H97.344V47.488H88.704V45.448ZM88.92 52.912H98.712V55H86.52V38.2H98.376V40.288H88.92V52.912ZM109.054 42.16C110.094 42.16 111.006 42.36 111.79 42.76C112.59 43.16 113.214 43.768 113.662 44.584C114.11 45.4 114.334 46.432 114.334 47.68V55H112.03V47.944C112.03 46.712 111.726 45.784 111.118 45.16C110.526 44.536 109.686 44.224 108.598 44.224C107.782 44.224 107.07 44.384 106.462 44.704C105.854 45.024 105.382 45.496 105.046 46.12C104.726 46.744 104.566 47.52 104.566 48.448V55H102.262V42.28H104.47V45.712L104.11 44.8C104.526 43.968 105.166 43.32 106.03 42.856C106.894 42.392 107.902 42.16 109.054 42.16ZM122.966 55.144C121.686 55.144 120.694 54.8 119.99 54.112C119.286 53.424 118.934 52.44 118.934 51.16V39.496H121.238V51.064C121.238 51.752 121.406 52.28 121.742 52.648C122.094 53.016 122.59 53.2 123.23 53.2C123.95 53.2 124.55 53 125.03 52.6L125.75 54.256C125.398 54.56 124.974 54.784 124.478 54.928C123.998 55.072 123.494 55.144 122.966 55.144ZM116.774 44.176V42.28H124.886V44.176H116.774ZM133.778 55.144C132.418 55.144 131.218 54.864 130.178 54.304C129.154 53.744 128.354 52.976 127.778 52C127.218 51.024 126.938 49.904 126.938 48.64C126.938 47.376 127.21 46.256 127.754 45.28C128.314 44.304 129.074 43.544 130.034 43C131.01 42.44 132.106 42.16 133.322 42.16C134.554 42.16 135.642 42.432 136.586 42.976C137.53 43.52 138.266 44.288 138.794 45.28C139.338 46.256 139.61 47.4 139.61 48.712C139.61 48.808 139.602 48.92 139.586 49.048C139.586 49.176 139.578 49.296 139.562 49.408H128.738V47.752H138.362L137.426 48.328C137.442 47.512 137.274 46.784 136.922 46.144C136.57 45.504 136.082 45.008 135.458 44.656C134.85 44.288 134.138 44.104 133.322 44.104C132.522 44.104 131.81 44.288 131.186 44.656C130.562 45.008 130.074 45.512 129.722 46.168C129.37 46.808 129.194 47.544 129.194 48.376V48.76C129.194 49.608 129.386 50.368 129.77 51.04C130.17 51.696 130.722 52.208 131.426 52.576C132.13 52.944 132.938 53.128 133.85 53.128C134.602 53.128 135.282 53 135.89 52.744C136.514 52.488 137.058 52.104 137.522 51.592L138.794 53.08C138.218 53.752 137.498 54.264 136.634 54.616C135.786 54.968 134.834 55.144 133.778 55.144ZM142.809 55V42.28H145.017V45.736L144.801 44.872C145.153 43.992 145.745 43.32 146.577 42.856C147.409 42.392 148.433 42.16 149.649 42.16V44.392C149.553 44.376 149.457 44.368 149.361 44.368C149.281 44.368 149.201 44.368 149.121 44.368C147.889 44.368 146.913 44.736 146.193 45.472C145.473 46.208 145.113 47.272 145.113 48.664V55H142.809ZM159.233 55.144C158.177 55.144 157.209 54.904 156.329 54.424C155.465 53.928 154.769 53.2 154.241 52.24C153.729 51.28 153.473 50.08 153.473 48.64C153.473 47.2 153.721 46 154.217 45.04C154.729 44.08 155.417 43.36 156.281 42.88C157.161 42.4 158.145 42.16 159.233 42.16C160.481 42.16 161.585 42.432 162.545 42.976C163.505 43.52 164.265 44.28 164.825 45.256C165.385 46.216 165.665 47.344 165.665 48.64C165.665 49.936 165.385 51.072 164.825 52.048C164.265 53.024 163.505 53.784 162.545 54.328C161.585 54.872 160.481 55.144 159.233 55.144ZM152.489 59.656V42.28H154.697V45.712L154.553 48.664L154.793 51.616V59.656H152.489ZM159.041 53.128C159.857 53.128 160.585 52.944 161.225 52.576C161.881 52.208 162.393 51.688 162.761 51.016C163.145 50.328 163.337 49.536 163.337 48.64C163.337 47.728 163.145 46.944 162.761 46.288C162.393 45.616 161.881 45.096 161.225 44.728C160.585 44.36 159.857 44.176 159.041 44.176C158.241 44.176 157.513 44.36 156.857 44.728C156.217 45.096 155.705 45.616 155.321 46.288C154.953 46.944 154.769 47.728 154.769 48.64C154.769 49.536 154.953 50.328 155.321 51.016C155.705 51.688 156.217 52.208 156.857 52.576C157.513 52.944 158.241 53.128 159.041 53.128ZM168.848 55V42.28H171.056V45.736L170.84 44.872C171.192 43.992 171.784 43.32 172.616 42.856C173.448 42.392 174.472 42.16 175.688 42.16V44.392C175.592 44.376 175.496 44.368 175.4 44.368C175.32 44.368 175.24 44.368 175.16 44.368C173.928 44.368 172.952 44.736 172.232 45.472C171.512 46.208 171.152 47.272 171.152 48.664V55H168.848ZM178.528 55V42.28H180.832V55H178.528ZM179.68 39.832C179.232 39.832 178.856 39.688 178.552 39.4C178.264 39.112 178.12 38.76 178.12 38.344C178.12 37.912 178.264 37.552 178.552 37.264C178.856 36.976 179.232 36.832 179.68 36.832C180.128 36.832 180.496 36.976 180.784 37.264C181.088 37.536 181.24 37.88 181.24 38.296C181.24 38.728 181.096 39.096 180.808 39.4C180.52 39.688 180.144 39.832 179.68 39.832ZM188.879 55.144C187.823 55.144 186.815 55 185.855 54.712C184.911 54.424 184.167 54.072 183.623 53.656L184.583 51.832C185.127 52.2 185.799 52.512 186.599 52.768C187.399 53.024 188.215 53.152 189.047 53.152C190.119 53.152 190.887 53 191.351 52.696C191.831 52.392 192.071 51.968 192.071 51.424C192.071 51.024 191.927 50.712 191.639 50.488C191.351 50.264 190.967 50.096 190.487 49.984C190.023 49.872 189.503 49.776 188.927 49.696C188.351 49.6 187.775 49.488 187.199 49.36C186.623 49.216 186.095 49.024 185.615 48.784C185.135 48.528 184.751 48.184 184.463 47.752C184.175 47.304 184.031 46.712 184.031 45.976C184.031 45.208 184.247 44.536 184.679 43.96C185.111 43.384 185.719 42.944 186.503 42.64C187.303 42.32 188.247 42.16 189.335 42.16C190.167 42.16 191.007 42.264 191.855 42.472C192.719 42.664 193.423 42.944 193.967 43.312L192.983 45.136C192.407 44.752 191.807 44.488 191.183 44.344C190.559 44.2 189.935 44.128 189.311 44.128C188.303 44.128 187.551 44.296 187.055 44.632C186.559 44.952 186.311 45.368 186.311 45.88C186.311 46.312 186.455 46.648 186.743 46.888C187.047 47.112 187.431 47.288 187.895 47.416C188.375 47.544 188.903 47.656 189.479 47.752C190.055 47.832 190.631 47.944 191.207 48.088C191.783 48.216 192.303 48.4 192.767 48.64C193.247 48.88 193.631 49.216 193.919 49.648C194.223 50.08 194.375 50.656 194.375 51.376C194.375 52.144 194.151 52.808 193.703 53.368C193.255 53.928 192.623 54.368 191.807 54.688C190.991 54.992 190.015 55.144 188.879 55.144ZM202.918 55.144C201.558 55.144 200.358 54.864 199.318 54.304C198.294 53.744 197.494 52.976 196.918 52C196.358 51.024 196.078 49.904 196.078 48.64C196.078 47.376 196.35 46.256 196.894 45.28C197.454 44.304 198.214 43.544 199.174 43C200.15 42.44 201.246 42.16 202.462 42.16C203.694 42.16 204.782 42.432 205.726 42.976C206.67 43.52 207.406 44.288 207.934 45.28C208.478 46.256 208.75 47.4 208.75 48.712C208.75 48.808 208.742 48.92 208.726 49.048C208.726 49.176 208.718 49.296 208.702 49.408H197.878V47.752H207.502L206.566 48.328C206.582 47.512 206.414 46.784 206.062 46.144C205.71 45.504 205.222 45.008 204.598 44.656C203.99 44.288 203.278 44.104 202.462 44.104C201.662 44.104 200.95 44.288 200.326 44.656C199.702 45.008 199.214 45.512 198.862 46.168C198.51 46.808 198.334 47.544 198.334 48.376V48.76C198.334 49.608 198.526 50.368 198.91 51.04C199.31 51.696 199.862 52.208 200.566 52.576C201.27 52.944 202.078 53.128 202.99 53.128C203.742 53.128 204.422 53 205.03 52.744C205.654 52.488 206.198 52.104 206.662 51.592L207.934 53.08C207.358 53.752 206.638 54.264 205.774 54.616C204.926 54.968 203.974 55.144 202.918 55.144ZM215.598 55.144C214.542 55.144 213.534 55 212.574 54.712C211.63 54.424 210.886 54.072 210.342 53.656L211.302 51.832C211.846 52.2 212.518 52.512 213.318 52.768C214.118 53.024 214.934 53.152 215.766 53.152C216.838 53.152 217.606 53 218.07 52.696C218.55 52.392 218.79 51.968 218.79 51.424C218.79 51.024 218.646 50.712 218.358 50.488C218.07 50.264 217.686 50.096 217.206 49.984C216.742 49.872 216.222 49.776 215.646 49.696C215.07 49.6 214.494 49.488 213.918 49.36C213.342 49.216 212.814 49.024 212.334 48.784C211.854 48.528 211.47 48.184 211.182 47.752C210.894 47.304 210.75 46.712 210.75 45.976C210.75 45.208 210.966 44.536 211.398 43.96C211.83 43.384 212.438 42.944 213.222 42.64C214.022 42.32 214.966 42.16 216.054 42.16C216.886 42.16 217.726 42.264 218.574 42.472C219.438 42.664 220.142 42.944 220.686 43.312L219.702 45.136C219.126 44.752 218.526 44.488 217.902 44.344C217.278 44.2 216.654 44.128 216.03 44.128C215.022 44.128 214.27 44.296 213.774 44.632C213.278 44.952 213.03 45.368 213.03 45.88C213.03 46.312 213.174 46.648 213.462 46.888C213.766 47.112 214.15 47.288 214.614 47.416C215.094 47.544 215.622 47.656 216.198 47.752C216.774 47.832 217.35 47.944 217.926 48.088C218.502 48.216 219.022 48.4 219.486 48.64C219.966 48.88 220.35 49.216 220.638 49.648C220.942 50.08 221.094 50.656 221.094 51.376C221.094 52.144 220.87 52.808 220.422 53.368C219.974 53.928 219.342 54.368 218.526 54.688C217.71 54.992 216.734 55.144 215.598 55.144Z" fill="black" fill-opacity="0.78"/>
<path id="VK" d="M91.368 28L83.976 11.2H86.568L93.36 26.704H91.872L98.712 11.2H101.112L93.744 28H91.368ZM105.366 23.944L105.246 21.016L114.774 11.2H117.51L110.142 18.976L108.798 20.464L105.366 23.944ZM103.254 28V11.2H105.654V28H103.254ZM115.158 28L108.27 19.984L109.878 18.208L117.966 28H115.158Z" fill="black" fill-opacity="0.78"/>
</g>
</svg>
