<?xml version="1.0" encoding="UTF-8"?>
<svg id="Layer_2" data-name="Layer 2" xmlns="http://www.w3.org/2000/svg" viewBox="0 0 387.78 334.36">
  <defs>
    <style>
      .cls-1, .cls-2 {
        fill: #fff;
      }

      .cls-3 {
        fill: #f5f5f5;
      }

      .cls-4 {
        opacity: .2;
      }

      .cls-5 {
        opacity: .3;
      }

      .cls-6 {
        fill: #ff8b7b;
      }

      .cls-7 {
        fill: #407bff;
      }

      .cls-8 {
        fill: #ff5652;
      }

      .cls-2 {
        opacity: .6;
      }

      .cls-9 {
        fill: #263238;
      }
    </style>
  </defs>
  <g id="Shadow">
    <ellipse id="_Path_" data-name="&amp;lt;Path&amp;gt;" class="cls-3" cx="193.89" cy="323.03" rx="193.89" ry="11.32"/>
  </g>
  <g id="Hourglass">
    <g>
      <g class="cls-4">
        <polygon class="cls-7" points="304.62 314.66 240.93 196.95 177.24 314.66 304.62 314.66"/>
        <polygon class="cls-7" points="304.62 115.52 240.93 233.23 177.24 115.52 304.62 115.52"/>
      </g>
      <g>
        <path class="cls-7" d="m252.59,185.01l-9.32,17.23c-1.01,1.86-3.69,1.86-4.69,0l-9.32-17.23c-3.68-6.8,1.24-15.05,8.97-15.05h5.39c7.73,0,12.65,8.26,8.97,15.05Z"/>
        <path class="cls-7" d="m241.94,284.95l28.91,11.9c2.7,1.11,1.91,5.14-1.02,5.14h-57.82c-2.92,0-3.72-4.02-1.02-5.14l28.91-11.9c.65-.27,1.38-.27,2.03,0Z"/>
        <circle class="cls-7" cx="240.93" cy="258.59" r="3.71"/>
        <circle class="cls-7" cx="240.93" cy="219.85" r="1.91"/>
        <circle class="cls-7" cx="240.93" cy="238.32" r="2.17"/>
      </g>
      <path class="cls-7" d="m304.3,308.86h-126.73c-3.19,0-5.8,2.61-5.8,5.8h0c0,3.19,2.61,5.8,5.8,5.8h126.73c3.19,0,5.8-2.61,5.8-5.8h0c0-3.19-2.61-5.8-5.8-5.8Z"/>
      <path class="cls-7" d="m304.3,109.72h-126.73c-3.19,0-5.8,2.61-5.8,5.8h0c0,3.19,2.61,5.8,5.8,5.8h126.73c3.19,0,5.8-2.61,5.8-5.8h0c0-3.19-2.61-5.8-5.8-5.8Z"/>
    </g>
  </g>
  <g id="Character">
    <g>
      <g>
        <polygon class="cls-6" points="138.52 312.47 131.46 310.18 135.85 293.56 142.9 295.85 138.52 312.47"/>
        <path class="cls-9" d="m131.36,309.25l7.92,2.57c.29.09.44.36.37.65l-1.65,6.39c-.17.66-.98,1.08-1.64.85-2.74-.94-4.01-1.53-7.49-2.66-2.14-.7-9.21-2.52-12.17-3.48-2.89-.94-1.93-3.86-.59-3.72,6.01.64,11.39.35,13.89-.57.45-.17.93-.18,1.36-.04Z"/>
        <polygon class="cls-4" points="142.9 295.85 135.85 293.56 133.59 302.13 140.64 304.42 142.9 295.85"/>
        <path class="cls-7" d="m162.17,127.52s-12.65,58.55-15.62,79.6c-3.25,23.05-15.46,92.27-15.46,92.27l13.09,3.62s18.14-67.13,23.43-89.54c5.75-24.32,21.04-85.94,21.04-85.94h-26.49Z"/>
        <path class="cls-5" d="m177.81,146.72c-4.99,11.34-7.47,36.04-5.53,47.35,3.54-14.55,7.8-31.85,11.09-45.16-1.11-3.86-2.95-8.12-5.56-2.19Z"/>
        <polygon class="cls-9" points="144.51 303.26 130.49 299.4 130.76 293.69 146.55 299.15 144.51 303.26"/>
        <path class="cls-9" d="m128.46,309.67c.65.21,1.42.31,1.96.36.07,0,.13-.03.17-.09.03-.06.03-.13-.01-.19-.17-.23-1.73-2.24-2.7-2.18-.22.01-.41.13-.53.34-.2.35-.23.67-.08.96.19.37.66.62,1.2.8Zm1.59-.03c-1.34-.16-2.26-.5-2.48-.93-.09-.18-.07-.38.07-.62.07-.11.15-.17.26-.17.52-.03,1.5.94,2.15,1.73Z"/>
        <path class="cls-9" d="m130.38,310.02s.05.01.08,0c.06,0,.11-.05.13-.1.03-.08.85-2.06.36-2.98-.13-.25-.34-.4-.62-.46-.34-.07-.61.04-.76.3-.41.72.16,2.53.73,3.18.02.02.05.04.08.05Zm-.04-3.17c.14.04.24.13.31.26.29.55-.03,1.73-.26,2.39-.44-.72-.78-2.06-.51-2.53.05-.09.14-.19.39-.14.03,0,.05.01.08.02Z"/>
      </g>
      <path class="cls-9" d="m175.63,71.93c-.38.89-.7,1.57-1.05,2.34-.35.74-.72,1.46-1.09,2.18-.75,1.44-1.52,2.86-2.33,4.27-1.64,2.8-3.41,5.54-5.4,8.18-1.98,2.65-4.16,5.21-6.65,7.6-2.48,2.4-5.32,4.63-8.68,6.41l-.25.13c-.4.21-.85.37-1.27.46-2.41.51-4.85.32-6.87-.28-2.04-.59-3.74-1.47-5.24-2.43-2.99-1.94-5.22-4.24-7.24-6.56-1.99-2.36-3.71-4.8-5.26-7.32-1.55-2.54-2.91-5.05-4.14-7.84-.72-1.64.03-3.55,1.67-4.27,1.36-.59,2.9-.18,3.8.91l.1.12c1.65,2.01,3.44,4.13,5.24,6.07,1.81,1.96,3.67,3.83,5.58,5.48,1.89,1.66,3.9,3.09,5.74,4,.91.45,1.78.73,2.47.81.69.08,1.12.02,1.44-.12l-1.53.6c1.93-1.25,3.82-2.96,5.61-4.9,1.78-1.95,3.46-4.13,5.05-6.42,1.58-2.3,3.08-4.71,4.49-7.19.71-1.23,1.4-2.49,2.06-3.75l.97-1.9c.31-.61.66-1.3.89-1.8l.06-.13c1.53-3.24,5.41-4.63,8.65-3.1,3.17,1.5,4.56,5.24,3.19,8.44Z"/>
      <path class="cls-5" d="m159.28,85.51c3.14-8.34,9.81-8.48,12.7-6.27-.21.39-.43.78-.65,1.17-1.56,2.71-3.27,5.35-5.15,7.91-1.88,2.55-3.94,5.04-6.27,7.38-.72.71-1.46,1.41-2.23,2.09-.16-3.93.14-8.38,1.6-12.28Z"/>
      <path class="cls-6" d="m119.87,79.59l-6.5.23,1.62-6.94s3.87.16,6.63.96c1.67.49,2.36,2.5,1.4,3.96h0c-.7,1.08-1.88,1.74-3.16,1.79Z"/>
      <path class="cls-7" d="m123.53,73.71c-.54-.43-1.24-.83-2.14-1.11-.55,2.84-3.96,7.64-3.96,7.64h2.71c.71,0,1.38-.31,1.84-.86l1.9-2.27c.86-1.03.72-2.56-.33-3.4Z"/>
      <polygon class="cls-6" points="108.41 76.63 110.23 71.73 114.99 72.88 113.37 79.82 108.41 76.63"/>
      <g>
        <polygon class="cls-6" points="190.14 315.72 182.73 315.72 182.47 298.55 189.88 298.55 190.14 315.72"/>
        <path class="cls-9" d="m182.34,314.86h8.33c.3,0,.53.21.55.51l.4,6.59c.04.68-.6,1.33-1.3,1.32-2.9-.05-4.28-.22-7.95-.22-2.25,0-9.79.23-12.9.23s-3.02-3.08-1.7-3.36c5.91-1.25,11.19-2.97,13.29-4.62.38-.3.83-.46,1.28-.46Z"/>
        <polygon class="cls-4" points="189.88 298.55 182.47 298.55 182.6 307.4 190.02 307.4 189.88 298.55"/>
        <path class="cls-7" d="m176.63,127.52s-2.83,64.41-1.63,85.64c1.32,23.24,4.08,92.11,4.08,92.11h13.58s3.42-66.99,4.24-90c.89-24.98,4.91-87.74,4.91-87.74h-25.19Z"/>
        <polygon class="cls-9" points="193.21 305.27 178.53 305.27 177.42 299.81 193.61 300.62 193.21 305.27"/>
        <path class="cls-9" d="m179.71,316.15c.68,0,1.44-.14,1.98-.27.07-.02.12-.07.13-.14.01-.07-.02-.14-.07-.17-.24-.16-2.34-1.6-3.24-1.24-.21.08-.35.25-.4.49-.09.39-.02.71.22.94.29.29.82.39,1.39.39Zm1.5-.52c-1.33.26-2.3.22-2.65-.12-.14-.14-.18-.34-.12-.62.03-.13.09-.2.19-.24.49-.19,1.72.43,2.58.98Z"/>
        <path class="cls-9" d="m181.65,315.89s.05,0,.08-.02c.05-.03.09-.08.09-.14,0-.09.17-2.22-.57-2.94-.2-.19-.45-.27-.73-.24-.34.04-.56.23-.63.52-.17.81.93,2.36,1.67,2.8.03.02.06.02.09.02Zm-1.01-3c.14,0,.27.05.37.15.45.43.51,1.65.49,2.36-.64-.54-1.38-1.72-1.27-2.25.02-.1.08-.22.33-.25.03,0,.05,0,.08,0Z"/>
      </g>
      <path class="cls-9" d="m205.53,67.73c.47-2.62-1.33-5.11-3.96-5.49h-.09c-2.39-.36-5.39-.72-8.33-.86-5.06-.24-12.39-.4-16.85,0-2.59.24-5.12.67-7.14,1.06-.03,0-.05.01-.08.02-2.57.52-4.65,2.42-5.39,4.94-2.42,8.15-5.3,24.79-1.53,60.12h39.65c.28-3.54-.51-15.06.07-29.73.44-11.18,2.43-23.22,3.65-30.05Z"/>
      <path class="cls-5" d="m205.15,69.92c-.82,4.74-1.84,11.18-2.54,17.97,0,0-3.62-7.1-4.28-13.17s4.51-6.5,6.81-4.8Z"/>
      <g class="cls-4">
        <g>
          <path class="cls-1" d="m178.56,70.85c-.14,0-.27-.07-.33-.2-.1-.18-.02-.41.16-.51l12.36-6.41c.19-.09.41-.02.51.16.1.18.02.41-.16.51l-12.36,6.41c-.06.03-.11.04-.17.04Z"/>
          <path class="cls-1" d="m184.22,71.44c-.1,0-.19-.04-.26-.11l-6.77-6.74c-.15-.15-.15-.38,0-.53.15-.15.38-.15.53,0l6.77,6.74c.15.15.15.38,0,.53-.07.07-.17.11-.27.11Z"/>
        </g>
        <path class="cls-1" d="m193.15,61.38c-5.06-.24-12.39-.4-16.84,0-.09,0-.19.02-.28.03-.16.66-.31,1.89.43,3.07.94,1.5,2.91,2.34,5.87,2.5.38.02.75.03,1.11.03,8.05,0,11.09-4.86,11.22-5.07l.28-.45c-.6-.04-1.19-.08-1.79-.11Z"/>
      </g>
      <path class="cls-6" d="m177.11,61.32c4.9-1.16,5.76-4.19,5.43-7.52-.07-.81-.21-1.65-.39-2.48l6.14-5.1,4.51-3.74c-1.25,5.43-2.66,15.32,1.01,18.94,0,0-3.04,5.01-11.42,4.55-7.08-.38-5.28-4.65-5.28-4.65Z"/>
      <path class="cls-4" d="m182.15,51.32c.18.83.32,1.67.39,2.48,2.29-.46,5.35-2.9,5.67-5.24.12-.88.14-1.73.08-2.34l-6.14,5.1Z"/>
      <path class="cls-9" d="m178.86,25.3c-3.33,1.96-2.8,7-3.71,10.58,2.12.21,5.46-3.56,5.46-3.56l1.99-5.73-3.75-1.29Z"/>
      <path class="cls-6" d="m196.6,35.36c-2.13,7.06-3.02,11.29-7.52,14.24-6.77,4.43-14.89-.62-14.92-8.1-.03-6.73,3.46-17.15,11.18-18.59,7.61-1.42,13.39,5.4,11.26,12.46Z"/>
      <path class="cls-9" d="m189.95,41.35c5-5.8-1.25-8.66,3.86-12.69-5.75.27-15.22-.14-16.91-4.08-1.69-3.94,3.51-9.28,7.84-9.78,5.04-.58,3.92,5.61,3.92,5.61,0,0,19.14-1.19,13.06,6.94,4.6-.28,3.34,7.17-4.67,13.44-2.01.72-7.1.55-7.1.55Z"/>
      <path class="cls-9" d="m200.57,27.5s3.94-1.17,3.8-4.29c1.43.98,1.57,3.96-3.8,4.29Z"/>
      <path class="cls-6" d="m197.77,42.73c-1.27,1.56-3.04,2.5-4.55,2.77-2.27.41-2.8-1.69-1.67-3.73,1.02-1.84,3.43-4.28,5.47-3.76,2.01.51,2.2,2.94.75,4.73Z"/>
      <path class="cls-9" d="m185.21,35.17c-.14.58-.56.99-.94.92-.38-.08-.58-.61-.45-1.19.14-.58.56-.99.94-.92.38.08.58.61.45,1.19Z"/>
      <path class="cls-9" d="m178.58,33.85c-.14.58-.56.99-.94.92-.38-.08-.58-.61-.45-1.19.14-.58.56-.99.94-.92.38.08.58.61.45,1.19Z"/>
      <path class="cls-8" d="m180.62,34.56s-2.13,3.09-3.98,4.42c.81,1.17,2.68,1.08,2.68,1.08l1.3-5.5Z"/>
      <path class="cls-9" d="m181.34,42.11c2.35.19,3.78-1.18,3.84-1.24.07-.07.07-.18,0-.25-.07-.07-.18-.07-.25,0-.02.02-1.64,1.57-4.22,1.05-.1-.02-.19.04-.21.14-.02.09.04.19.14.21.24.05.47.08.69.1Z"/>
      <path class="cls-9" d="m187.77,33.56c.06,0,.12,0,.17-.03.18-.08.25-.29.17-.47-.8-1.75-2.41-1.97-2.48-1.98-.18-.04-.37.11-.39.3-.02.19.11.37.3.39.07,0,1.3.2,1.93,1.57.06.12.17.19.29.2Z"/>
      <path class="cls-9" d="m176.94,29.87c.11.03.23.02.32-.06,1.26-.98,2.51-.6,2.52-.6.19.06.38-.04.44-.23.06-.18-.04-.38-.23-.44,0,0,0,0,0,0-.07-.02-1.62-.49-3.17.71-.15.12-.18.34-.06.49.04.06.1.1.17.12Z"/>
      <path class="cls-9" d="m205.92,64.88l.84,1.14.75,1.06c.49.71.95,1.42,1.41,2.13.92,1.42,1.77,2.87,2.61,4.33,1.65,2.93,3.17,5.92,4.52,9,.7,1.53,1.31,3.1,1.94,4.66.56,1.59,1.18,3.16,1.67,4.78,1.09,3.19,1.88,6.51,2.6,9.83l.08.38c.31,1.41,0,2.82-.72,3.94-1.26,1.94-2.79,3.77-4.55,5.39-1.74,1.64-3.8,3-5.98,4.03-2.19,1.02-4.53,1.66-6.86,1.9-1.17.12-2.34.14-3.49.06-.58-.04-1.16-.11-1.74-.2-.29-.05-.58-.11-.88-.17l-1.01-.24c-.25-.06-.4-.31-.34-.56l1.38-5.8s.26-.06.42-.1l.55-.11c.37-.08.75-.17,1.13-.27.75-.2,1.48-.46,2.17-.75,1.39-.59,2.67-1.33,3.79-2.23,2.26-1.77,3.94-4.12,5.27-6.85l-.64,4.32c-.86-2.83-1.76-5.64-2.87-8.4-1.08-2.76-2.29-5.49-3.61-8.17-1.32-2.68-2.71-5.33-4.22-7.91-.74-1.3-1.53-2.56-2.3-3.82l-1.19-1.86-.59-.9-.55-.8-.2-.29c-2.02-2.97-1.25-7.01,1.72-9.02,2.9-1.97,6.83-1.27,8.89,1.52Z"/>
      <path class="cls-6" d="m192.67,116.27l-2.16,3.53,9.34-.38s2.44-6.28-.9-7.27l-1.29.36c-2.08.58-3.86,1.92-4.99,3.76Z"/>
      <path class="cls-7" d="m196.51,111.34c-.57.38-1.17.93-1.7,1.71,2.54,1.38,6.08,6.08,6.08,6.08l.82-2.58c.21-.68.12-1.41-.27-2.01l-1.59-2.49c-.72-1.13-2.23-1.46-3.34-.71Z"/>
      <polygon class="cls-6" points="191.34 125.22 199.03 124.53 199.85 119.42 190.51 119.8 191.34 125.22"/>
    </g>
  </g>
  <g id="Clock">
    <g>
      <path class="cls-7" d="m96.95,3.13l-.51-.86c1.46-.87,3-1.63,4.58-2.27l.38.93c-1.53.62-3.02,1.37-4.44,2.21Z"/>
      <path class="cls-7" d="m82.34,20.75l-.94-.34c2.37-6.54,6.61-12.18,12.26-16.3l.59.81c-5.49,4-9.61,9.48-11.91,15.84Z"/>
      <circle class="cls-7" cx="114.09" cy="32.19" r="30.78"/>
      <path class="cls-2" d="m139.8,32.18c0,14.21-11.51,25.72-25.71,25.72-6.73,0-12.86-2.59-17.44-6.82-5.09-4.7-8.28-11.43-8.28-18.89,0-14.2,11.52-25.72,25.72-25.72,7.53,0,14.29,3.23,19,8.38.01,0,.03.01.05.05,4.14,4.57,6.67,10.63,6.67,17.29Z"/>
      <path class="cls-1" d="m139.8,32.18c0,14.21-11.51,25.72-25.71,25.72-6.73,0-12.86-2.59-17.44-6.82-4.24-4.58-6.83-10.72-6.83-17.45,0-14.2,11.52-25.72,25.72-25.72,6.8,0,12.95,2.62,17.55,6.94.01,0,.03.01.05.05,4.14,4.57,6.67,10.63,6.67,17.29Z"/>
      <path class="cls-9" d="m114.09,33.69c-.38,0-.77-.15-1.06-.44l-12.54-12.54c-.59-.59-.59-1.54,0-2.12.59-.59,1.54-.59,2.12,0l11.48,11.48,6.63-6.63c.59-.59,1.54-.59,2.12,0,.59.59.59,1.54,0,2.12l-7.69,7.69c-.29.29-.68.44-1.06.44Z"/>
    </g>
  </g>
</svg>